<svg width="87" height="24" viewBox="0 0 87 24" fill="none" xmlns="http://www.w3.org/2000/svg">
<rect width="87" height="24" rx="8" fill="#FFE87A"/>
<path d="M10.1548 13.45C10.7948 12.8967 11.2981 12.4433 11.6648 12.09C12.0381 11.73 12.3481 11.3567 12.5948 10.97C12.8415 10.5833 12.9648 10.1967 12.9648 9.81C12.9648 9.41 12.8681 9.09667 12.6748 8.87C12.4881 8.64333 12.1915 8.53 11.7848 8.53C11.3915 8.53 11.0848 8.65667 10.8648 8.91C10.6515 9.15667 10.5381 9.49 10.5248 9.91H9.4248C9.4448 9.15 9.67147 8.57 10.1048 8.17C10.5448 7.76333 11.1015 7.56 11.7748 7.56C12.5015 7.56 13.0681 7.76 13.4748 8.16C13.8881 8.56 14.0948 9.09333 14.0948 9.76C14.0948 10.24 13.9715 10.7033 13.7248 11.15C13.4848 11.59 13.1948 11.9867 12.8548 12.34C12.5215 12.6867 12.0948 13.09 11.5748 13.55L11.1248 13.95H14.2948V14.9H9.4348V14.07L10.1548 13.45ZM15.2963 11.26C15.2963 10.1067 15.4896 9.20667 15.8763 8.56C16.2696 7.90667 16.943 7.58 17.8963 7.58C18.8496 7.58 19.5196 7.90667 19.9063 8.56C20.2996 9.20667 20.4963 10.1067 20.4963 11.26C20.4963 12.4267 20.2996 13.34 19.9063 14C19.5196 14.6533 18.8496 14.98 17.8963 14.98C16.943 14.98 16.2696 14.6533 15.8763 14C15.4896 13.34 15.2963 12.4267 15.2963 11.26ZM19.3763 11.26C19.3763 10.72 19.3396 10.2633 19.2663 9.89C19.1996 9.51667 19.0596 9.21333 18.8463 8.98C18.633 8.74 18.3163 8.62 17.8963 8.62C17.4763 8.62 17.1596 8.74 16.9463 8.98C16.733 9.21333 16.5896 9.51667 16.5163 9.89C16.4496 10.2633 16.4163 10.72 16.4163 11.26C16.4163 11.82 16.4496 12.29 16.5163 12.67C16.583 13.05 16.723 13.3567 16.9363 13.59C17.1563 13.8233 17.4763 13.94 17.8963 13.94C18.3163 13.94 18.633 13.8233 18.8463 13.59C19.0663 13.3567 19.2096 13.05 19.2763 12.67C19.343 12.29 19.3763 11.82 19.3763 11.26ZM21.5225 9.47C21.5225 8.98333 21.6625 8.60333 21.9425 8.33C22.2292 8.05 22.5959 7.91 23.0425 7.91C23.4892 7.91 23.8525 8.05 24.1325 8.33C24.4192 8.60333 24.5625 8.98333 24.5625 9.47C24.5625 9.95667 24.4192 10.34 24.1325 10.62C23.8525 10.9 23.4892 11.04 23.0425 11.04C22.5959 11.04 22.2292 10.9 21.9425 10.62C21.6625 10.34 21.5225 9.95667 21.5225 9.47ZM27.6225 8.04L23.6325 15H22.5125L26.5025 8.04H27.6225ZM23.0425 8.6C22.6225 8.6 22.4125 8.89 22.4125 9.47C22.4125 10.0567 22.6225 10.35 23.0425 10.35C23.2425 10.35 23.3959 10.28 23.5025 10.14C23.6159 9.99333 23.6725 9.77 23.6725 9.47C23.6725 8.89 23.4625 8.6 23.0425 8.6ZM25.5925 13.56C25.5925 13.0733 25.7325 12.6933 26.0125 12.42C26.2992 12.14 26.6659 12 27.1125 12C27.5525 12 27.9125 12.14 28.1925 12.42C28.4792 12.6933 28.6225 13.0733 28.6225 13.56C28.6225 14.0467 28.4792 14.43 28.1925 14.71C27.9125 14.99 27.5525 15.13 27.1125 15.13C26.6659 15.13 26.2992 14.99 26.0125 14.71C25.7325 14.43 25.5925 14.0467 25.5925 13.56ZM27.1025 12.69C26.6825 12.69 26.4725 12.98 26.4725 13.56C26.4725 14.14 26.6825 14.43 27.1025 14.43C27.5225 14.43 27.7325 14.14 27.7325 13.56C27.7325 12.98 27.5225 12.69 27.1025 12.69ZM34.6073 12.22C34.6073 11.6667 34.7206 11.1767 34.9473 10.75C35.1806 10.3233 35.494 9.99333 35.8873 9.76C36.2873 9.52 36.7306 9.4 37.2173 9.4C37.5773 9.4 37.9306 9.48 38.2773 9.64C38.6306 9.79333 38.9106 10 39.1173 10.26V7.6H40.2673V15H39.1173V14.17C38.9306 14.4367 38.6706 14.6567 38.3373 14.83C38.0106 15.0033 37.634 15.09 37.2073 15.09C36.7273 15.09 36.2873 14.97 35.8873 14.73C35.494 14.4833 35.1806 14.1433 34.9473 13.71C34.7206 13.27 34.6073 12.7733 34.6073 12.22ZM39.1173 12.24C39.1173 11.86 39.0373 11.53 38.8773 11.25C38.724 10.97 38.5206 10.7567 38.2673 10.61C38.014 10.4633 37.7406 10.39 37.4473 10.39C37.154 10.39 36.8806 10.4633 36.6273 10.61C36.374 10.75 36.1673 10.96 36.0073 11.24C35.854 11.5133 35.7773 11.84 35.7773 12.22C35.7773 12.6 35.854 12.9333 36.0073 13.22C36.1673 13.5067 36.374 13.7267 36.6273 13.88C36.8873 14.0267 37.1606 14.1 37.4473 14.1C37.7406 14.1 38.014 14.0267 38.2673 13.88C38.5206 13.7333 38.724 13.52 38.8773 13.24C39.0373 12.9533 39.1173 12.62 39.1173 12.24ZM42.3446 8.76C42.138 8.76 41.9646 8.69 41.8246 8.55C41.6846 8.41 41.6146 8.23667 41.6146 8.03C41.6146 7.82333 41.6846 7.65 41.8246 7.51C41.9646 7.37 42.138 7.3 42.3446 7.3C42.5446 7.3 42.7146 7.37 42.8546 7.51C42.9946 7.65 43.0646 7.82333 43.0646 8.03C43.0646 8.23667 42.9946 8.41 42.8546 8.55C42.7146 8.69 42.5446 8.76 42.3446 8.76ZM42.9046 9.49V15H41.7646V9.49H42.9046ZM46.4014 15.09C45.968 15.09 45.578 15.0133 45.2314 14.86C44.8914 14.7 44.6214 14.4867 44.4214 14.22C44.2214 13.9467 44.1147 13.6433 44.1014 13.31H45.2814C45.3014 13.5433 45.4114 13.74 45.6114 13.9C45.818 14.0533 46.0747 14.13 46.3814 14.13C46.7014 14.13 46.948 14.07 47.1214 13.95C47.3014 13.8233 47.3914 13.6633 47.3914 13.47C47.3914 13.2633 47.2914 13.11 47.0914 13.01C46.898 12.91 46.588 12.8 46.1614 12.68C45.748 12.5667 45.4114 12.4567 45.1514 12.35C44.8914 12.2433 44.6647 12.08 44.4714 11.86C44.2847 11.64 44.1914 11.35 44.1914 10.99C44.1914 10.6967 44.278 10.43 44.4514 10.19C44.6247 9.94333 44.8714 9.75 45.1914 9.61C45.518 9.47 45.8914 9.4 46.3114 9.4C46.938 9.4 47.4414 9.56 47.8214 9.88C48.208 10.1933 48.4147 10.6233 48.4414 11.17H47.3014C47.2814 10.9233 47.1814 10.7267 47.0014 10.58C46.8214 10.4333 46.578 10.36 46.2714 10.36C45.9714 10.36 45.7414 10.4167 45.5814 10.53C45.4214 10.6433 45.3414 10.7933 45.3414 10.98C45.3414 11.1267 45.3947 11.25 45.5014 11.35C45.608 11.45 45.738 11.53 45.8914 11.59C46.0447 11.6433 46.2714 11.7133 46.5714 11.8C46.9714 11.9067 47.298 12.0167 47.5514 12.13C47.8114 12.2367 48.0347 12.3967 48.2214 12.61C48.408 12.8233 48.5047 13.1067 48.5114 13.46C48.5114 13.7733 48.4247 14.0533 48.2514 14.3C48.078 14.5467 47.8314 14.74 47.5114 14.88C47.198 15.02 46.828 15.09 46.4014 15.09ZM49.3632 12.24C49.3632 11.6733 49.4765 11.1767 49.7032 10.75C49.9365 10.3167 50.2565 9.98333 50.6632 9.75C51.0698 9.51667 51.5365 9.4 52.0632 9.4C52.7298 9.4 53.2798 9.56 53.7132 9.88C54.1532 10.1933 54.4498 10.6433 54.6032 11.23H53.3732C53.2732 10.9567 53.1132 10.7433 52.8932 10.59C52.6732 10.4367 52.3965 10.36 52.0632 10.36C51.5965 10.36 51.2232 10.5267 50.9432 10.86C50.6698 11.1867 50.5332 11.6467 50.5332 12.24C50.5332 12.8333 50.6698 13.2967 50.9432 13.63C51.2232 13.9633 51.5965 14.13 52.0632 14.13C52.7232 14.13 53.1598 13.84 53.3732 13.26H54.6032C54.4432 13.82 54.1432 14.2667 53.7032 14.6C53.2632 14.9267 52.7165 15.09 52.0632 15.09C51.5365 15.09 51.0698 14.9733 50.6632 14.74C50.2565 14.5 49.9365 14.1667 49.7032 13.74C49.4765 13.3067 49.3632 12.8067 49.3632 12.24ZM58.1293 15.09C57.6093 15.09 57.1393 14.9733 56.7193 14.74C56.2993 14.5 55.9693 14.1667 55.7293 13.74C55.4893 13.3067 55.3693 12.8067 55.3693 12.24C55.3693 11.68 55.4926 11.1833 55.7393 10.75C55.9859 10.3167 56.3226 9.98333 56.7493 9.75C57.1759 9.51667 57.6526 9.4 58.1793 9.4C58.7059 9.4 59.1826 9.51667 59.6093 9.75C60.0359 9.98333 60.3726 10.3167 60.6193 10.75C60.8659 11.1833 60.9893 11.68 60.9893 12.24C60.9893 12.8 60.8626 13.2967 60.6093 13.73C60.3559 14.1633 60.0093 14.5 59.5693 14.74C59.1359 14.9733 58.6559 15.09 58.1293 15.09ZM58.1293 14.1C58.4226 14.1 58.6959 14.03 58.9493 13.89C59.2093 13.75 59.4193 13.54 59.5793 13.26C59.7393 12.98 59.8193 12.64 59.8193 12.24C59.8193 11.84 59.7426 11.5033 59.5893 11.23C59.4359 10.95 59.2326 10.74 58.9793 10.6C58.7259 10.46 58.4526 10.39 58.1593 10.39C57.8659 10.39 57.5926 10.46 57.3393 10.6C57.0926 10.74 56.8959 10.95 56.7493 11.23C56.6026 11.5033 56.5293 11.84 56.5293 12.24C56.5293 12.8333 56.6793 13.2933 56.9793 13.62C57.2859 13.94 57.6693 14.1 58.1293 14.1ZM67.1062 9.49V15H65.9662V14.35C65.7862 14.5767 65.5495 14.7567 65.2562 14.89C64.9695 15.0167 64.6629 15.08 64.3362 15.08C63.9029 15.08 63.5129 14.99 63.1662 14.81C62.8262 14.63 62.5562 14.3633 62.3562 14.01C62.1629 13.6567 62.0662 13.23 62.0662 12.73V9.49H63.1962V12.56C63.1962 13.0533 63.3195 13.4333 63.5662 13.7C63.8129 13.96 64.1495 14.09 64.5762 14.09C65.0029 14.09 65.3395 13.96 65.5862 13.7C65.8395 13.4333 65.9662 13.0533 65.9662 12.56V9.49H67.1062ZM71.3904 9.4C71.8237 9.4 72.2104 9.49 72.5504 9.67C72.897 9.85 73.167 10.1167 73.3604 10.47C73.5537 10.8233 73.6504 11.25 73.6504 11.75V15H72.5204V11.92C72.5204 11.4267 72.397 11.05 72.1504 10.79C71.9037 10.5233 71.567 10.39 71.1404 10.39C70.7137 10.39 70.3737 10.5233 70.1204 10.79C69.8737 11.05 69.7504 11.4267 69.7504 11.92V15H68.6104V9.49H69.7504V10.12C69.937 9.89333 70.1737 9.71667 70.4604 9.59C70.7537 9.46333 71.0637 9.4 71.3904 9.4ZM76.4345 10.42V13.47C76.4345 13.6767 76.4812 13.8267 76.5745 13.92C76.6745 14.0067 76.8412 14.05 77.0745 14.05H77.7745V15H76.8745C76.3612 15 75.9678 14.88 75.6945 14.64C75.4212 14.4 75.2845 14.01 75.2845 13.47V10.42H74.6345V9.49H75.2845V8.12H76.4345V9.49H77.7745V10.42H76.4345Z" fill="black"/>
</svg>
